<svg id="Layer_24" data-name="Layer 24" xmlns="http://www.w3.org/2000/svg" viewBox="0 0 150 150"><defs><style>.cls-1{fill:#000333;}.cls-2{fill:none;stroke:#000333;stroke-miterlimit:10;stroke-width:3px;}.cls-3{fill:#0cc;}</style></defs><title>customized</title><rect class="cls-1" x="53.53" y="58.77" width="29.63" height="3.25" rx="1.5" ry="1.5"/><path class="cls-2" d="M81.35,60.15a10,10,0,0,1,6.08,9.25h0a10.07,10.07,0,0,1-10,10.11h-30"/><path class="cls-2" d="M48,79.38l-0.25.1a11,11,0,0,0-6.82,10.07h0a11.07,11.07,0,0,0,11.09,11l76.08,0.18"/><path class="cls-3" d="M49.79,12.2c-8.55,0-14.25,7.41-14.25,15.53,0,4.84,1.28,7.55,3.42,12.11A177.64,177.64,0,0,0,49.79,59.36,177.64,177.64,0,0,0,60.61,39.84C62.75,35.14,64,32.57,64,27.73,64,19.61,58.34,12.2,49.79,12.2Zm0,21.37a7.12,7.12,0,1,1,7.12-7.12A7.05,7.05,0,0,1,49.79,33.57Z"/><path class="cls-3" d="M132.31,47.94c-9.07,0-15.12,7.86-15.12,16.48,0,5.14,1.36,8,3.63,12.86A188.58,188.58,0,0,0,132.31,98,188.57,188.57,0,0,0,143.8,77.28c2.27-5,3.63-7.71,3.63-12.86C147.43,55.81,141.38,47.94,132.31,47.94Zm0,21a7.56,7.56,0,1,1,7.56-7.56A7.49,7.49,0,0,1,132.31,69Z"/><path class="cls-3" d="M17.69,85.33c-9.07,0-15.12,7.86-15.12,16.48,0,5.14,1.36,8,3.63,12.86a188.58,188.58,0,0,0,11.49,20.72,188.57,188.57,0,0,0,11.49-20.72c2.27-5,3.63-7.71,3.63-12.86C32.82,93.2,26.77,85.33,17.69,85.33Zm0,21a7.56,7.56,0,1,1,7.56-7.56A7.49,7.49,0,0,1,17.69,106.38Z"/><rect class="cls-1" x="19.84" y="134.8" width="110.88" height="3.13" rx="1.33" ry="1.33"/><path class="cls-2" d="M127.75,100.76a17.68,17.68,0,0,1,17.68,17.68,17.88,17.88,0,0,1-17.62,18"/></svg>