<svg id="search" xmlns="http://www.w3.org/2000/svg" viewBox="0 0 150 150"><defs><style>.cls-1{fill:#0cc;}.cls-2{fill:none;stroke:#000333;stroke-miterlimit:10;stroke-width:3px;}.cls-3{fill:#000333;}</style></defs><title>search</title><path class="cls-1" d="M75.51,66l-1.64-2.19H40.42L38.78,66l-0.89,1.19H76.4Zm-6.59-9.33C68.39,54.41,65.51,46.14,63.4,44S61.84,35,62.08,31.18c0.07-1.16.13-2.15,0.13-2.85A14.65,14.65,0,0,0,60.79,23a21.05,21.05,0,0,1-2-8.22V11.45a1.69,1.69,0,0,0-3.38,0v3.38a21.07,21.07,0,0,1-2,8.22,14.67,14.67,0,0,0-1.42,5.29c0,0.7.06,1.68,0.13,2.85C52.45,35,52.88,42,50.89,44s-5,10.38-5.51,12.59a25.6,25.6,0,0,1-2.47,3.8H71.38A25.75,25.75,0,0,1,68.92,56.65ZM95.42,87.8A18.18,18.18,0,0,0,90.89,84H23.39a16.79,16.79,0,0,0-4.79,4.12A1.69,1.69,0,0,0,20,90.8H94.35A1.69,1.69,0,0,0,95.42,87.8ZM78.91,70.54H35.37c-0.88,1.2-1.7,2.34-2.43,3.38h48.4C80.62,72.88,79.8,71.74,78.91,70.54ZM84,78.34a11.32,11.32,0,0,0-.52-1H30.78a10.91,10.91,0,0,0-.52,1,6.62,6.62,0,0,1-2,2.34H86A6.68,6.68,0,0,1,84,78.34Z"/><circle class="cls-2" cx="57.18" cy="58.39" r="54.35"/><rect class="cls-3" x="117.57" y="85.96" width="4.46" height="73" rx="2" ry="2" transform="translate(-51.5 120.58) rotate(-45)"/></svg>