<svg id="secure_payment" data-name="secure payment" xmlns="http://www.w3.org/2000/svg" viewBox="0 0 500 500"><defs><style>.cls-1{fill:#f4d010;}.cls-2{fill:#0cc;}.cls-3{fill:#fff;}.cls-14,.cls-4{fill:none;stroke-miterlimit:10;}.cls-4{stroke:#fff;}.cls-5{fill:#8d68ac;}.cls-6{fill:#38454f;}.cls-7{fill:#aeb5ba;}.cls-8{fill:#d92526;}.cls-9{fill:#255fa8;}.cls-10{fill:#224094;}.cls-11{fill:#fbb544;}.cls-12{fill:#e6ebeb;}.cls-13{fill:#ed244c;}.cls-14{stroke:#38454f;stroke-width:2px;}</style></defs><title>Artboard 1</title><path class="cls-1" d="M92.48,164.58c-.67,0-9.26,3.17-10.62,3.65"/><circle class="cls-2" cx="277.63" cy="264.81" r="46.97"/><path class="cls-3" d="M299.8,240.9a17.93,17.93,0,0,0-6.16-2.77A17.41,17.41,0,0,0,287,238a26.69,26.69,0,0,0-6.37,1.9,42.11,42.11,0,0,0-5.94,3.14,79.64,79.64,0,0,0-10.81,8.22,119.06,119.06,0,0,0-9.72,9.69,64.84,64.84,0,0,1,19.48-19.61,31.12,31.12,0,0,1,13.18-4.89,16.92,16.92,0,0,1,7.06.78A15.56,15.56,0,0,1,299.8,240.9Z"/><path class="cls-3" d="M260.76,261.38A66.26,66.26,0,0,1,271,251.82a60.4,60.4,0,0,1,12.1-7.19,43.77,43.77,0,0,1,13.7-3.61,36.8,36.8,0,0,1,14.16,1.56l1,.3-.32,1a29.69,29.69,0,0,1-3.18,6.44,39.45,39.45,0,0,1-4.33,5.64,38.69,38.69,0,0,1-11.28,8.52,35.76,35.76,0,0,1-6.63,2.5,38.06,38.06,0,0,1-7,1.11,42.78,42.78,0,0,1-13.85-1.56,45.93,45.93,0,0,0,13.76.58,35.92,35.92,0,0,0,13-4,38.67,38.67,0,0,0,10.59-8.4,39.74,39.74,0,0,0,4.08-5.41,27.9,27.9,0,0,0,2.93-6l.65,1.26a35.34,35.34,0,0,0-13.4-1.58,44.28,44.28,0,0,0-13.25,3.16,65.13,65.13,0,0,0-12.13,6.55A75,75,0,0,0,260.76,261.38Z"/><path class="cls-3" d="M301.47,249.94a2.76,2.76,0,0,1-.68,2.42,12.29,12.29,0,0,1-1.81,1.88,32.66,32.66,0,0,1-4.24,3.05,65.12,65.12,0,0,1-9.33,4.77,61.8,61.8,0,0,1-10,3.28,30.43,30.43,0,0,1-5.32.72,13.14,13.14,0,0,1-2.82-.2,5.6,5.6,0,0,1-1.5-.52,2.58,2.58,0,0,1-1.28-3.4,5.61,5.61,0,0,1,.78-1.38,13.15,13.15,0,0,1,2-2,30,30,0,0,1,4.48-3,61.37,61.37,0,0,1,9.7-4.15,65,65,0,0,1,10.16-2.57,32.6,32.6,0,0,1,5.2-.5,12.28,12.28,0,0,1,2.6.22A2.76,2.76,0,0,1,301.47,249.94Zm0,0a2.74,2.74,0,0,0-2.11-1.33,12.23,12.23,0,0,0-2.59-.18,29.37,29.37,0,0,0-5.15.7,60.8,60.8,0,0,0-9.86,3.23,64.26,64.26,0,0,0-9.18,4.7,31.87,31.87,0,0,0-4.1,3,11.3,11.3,0,0,0-1.65,1.72c-.46.59-.67,1.27-.55,1.47s.64.6,1.38.74a11.3,11.3,0,0,0,2.38.2,31.27,31.27,0,0,0,5-.49,63.74,63.74,0,0,0,10-2.52,60.58,60.58,0,0,0,9.54-4.08,29.29,29.29,0,0,0,4.34-2.87,12.23,12.23,0,0,0,1.83-1.85A2.75,2.75,0,0,0,301.47,249.94Z"/><path class="cls-3" d="M252.78,265.11a45.14,45.14,0,0,0-2.94,5.08,10.87,10.87,0,0,0-1.24,5.36A6.53,6.53,0,0,0,251,280a12.78,12.78,0,0,0,4.82,2.52,28.43,28.43,0,0,0,5.62.95c2,.23,3.92.4,5.88.69a47.65,47.65,0,0,1,5.87,1.12,12.82,12.82,0,0,1,2.84,1.11,2.82,2.82,0,0,1,1.15,1.08,1.36,1.36,0,0,1-.22,1.47,1.2,1.2,0,0,0,0-1.32,2.46,2.46,0,0,0-1.13-.74,13.37,13.37,0,0,0-2.8-.64c-1.92-.28-3.87-.4-5.83-.53l-5.89-.36a28.57,28.57,0,0,1-6-.92,14.29,14.29,0,0,1-5.51-3,9.6,9.6,0,0,1-2-2.59,6.77,6.77,0,0,1-.77-3.21,11.15,11.15,0,0,1,1.94-5.88A27.79,27.79,0,0,1,252.78,265.11Z"/><circle class="cls-4" cx="256.55" cy="270.2" r="2.87"/><circle class="cls-3" cx="257.52" cy="269.9" r="1.86"/><path id="_Path_" data-name="&lt;Path&gt;" class="cls-5" d="M188.43,166.36H68.84a7.46,7.46,0,0,1-7.46-7.46V76.42A7.46,7.46,0,0,1,68.84,69H188.43a7.46,7.46,0,0,1,7.46,7.46V158.9a7.46,7.46,0,0,1-7.46,7.46"/><rect id="_Path_2" data-name="&lt;Path&gt;" class="cls-6" x="61.38" y="80.55" width="134.51" height="18.55"/><path id="_Path_3" data-name="&lt;Path&gt;" class="cls-7" d="M96.16,115.34H75.29a2.32,2.32,0,0,1,0-4.64H96.16a2.32,2.32,0,0,1,0,4.64"/><path id="_Path_4" data-name="&lt;Path&gt;" class="cls-7" d="M126.31,115.34H105.44a2.32,2.32,0,0,1,0-4.64h20.87a2.32,2.32,0,1,1,0,4.64"/><path id="_Path_5" data-name="&lt;Path&gt;" class="cls-7" d="M77.61,126.94H75.29a2.32,2.32,0,0,1,0-4.64h2.32a2.32,2.32,0,0,1,0,4.64"/><path id="_Path_6" data-name="&lt;Path&gt;" class="cls-7" d="M91.53,126.94H86.89a2.32,2.32,0,0,1,0-4.64h4.64a2.32,2.32,0,0,1,0,4.64"/><path id="_Path_7" data-name="&lt;Path&gt;" class="cls-7" d="M103.12,126.94H100.8a2.32,2.32,0,0,1,0-4.64h2.32a2.32,2.32,0,0,1,0,4.64"/><path id="_Path_8" data-name="&lt;Path&gt;" class="cls-7" d="M117,126.94H112.4a2.32,2.32,0,1,1,0-4.64H117a2.32,2.32,0,1,1,0,4.64"/><path id="_Path_9" data-name="&lt;Path&gt;" class="cls-7" d="M126.31,126.94a2.44,2.44,0,0,1-1.65-.67,2.4,2.4,0,0,1-.67-1.65,2.33,2.33,0,1,1,2.32,2.32"/><path id="_Path_10" data-name="&lt;Path&gt;" class="cls-8" d="M166.14,140.85a13.92,13.92,0,1,1-13.92-13.92,13.91,13.91,0,0,1,13.92,13.92"/><path id="_Path_11" data-name="&lt;Path&gt;" class="cls-9" d="M182.38,140.85a13.92,13.92,0,1,1-13.92-13.92,13.91,13.91,0,0,1,13.92,13.92"/><path id="_Path_12" data-name="&lt;Path&gt;" class="cls-1" d="M131.9,137.1H15.28A7.27,7.27,0,0,1,8,129.83V49.39a7.27,7.27,0,0,1,7.28-7.28H131.9a7.27,7.27,0,0,1,7.28,7.28v80.44a7.27,7.27,0,0,1-7.28,7.28"/><path class="cls-10" d="M103.08,105.14l-2.53,15.76h4l2.53-15.76Zm12.21,6.42c-1.41-.7-2.28-1.17-2.28-1.88s.73-1.31,2.33-1.31a7,7,0,0,1,3,.58l.37.16.55-3.3a10.21,10.21,0,0,0-3.63-.65c-4,0-6.81,2.08-6.83,5,0,2.19,2,3.41,3.55,4.14s2.1,1.23,2.1,1.9c0,1-1.27,1.49-2.43,1.49a8.23,8.23,0,0,1-3.8-.81l-.53-.24-.57,3.43a12.64,12.64,0,0,0,4.51.81c4.25,0,7-2,7-5.21,0-1.74-1.07-3.07-3.4-4.16Zm14.36-6.37h-3.13a2,2,0,0,0-2.12,1.27l-6,14.44h4.25l1.17-3.13h4.75l.61,3.14h3.75ZM125,114.61c.08,0,1.63-5.1,1.63-5.1l1.23,5.1Zm-27.82-9.47-4,10.7-.43-2.11a11.76,11.76,0,0,0-5.6-6.4l3.63,13.54h4.28l6.36-15.74H97.16Zm0,0"/><path class="cls-11" d="M91.43,107.17a2.64,2.64,0,0,0-2.63-2H82.52l-.07.29c4.9,1.21,9,4.92,10.34,8.42Zm0,0"/><path id="_Path_13" data-name="&lt;Path&gt;" class="cls-7" d="M41.92,105.44H21.57a2.26,2.26,0,1,0,0,4.52H41.92a2.26,2.26,0,1,0,0-4.52"/><path id="_Path_14" data-name="&lt;Path&gt;" class="cls-7" d="M73.59,107.7a2.26,2.26,0,0,0-2.26-2.26H51A2.26,2.26,0,1,0,51,110H71.32a2.26,2.26,0,0,0,2.26-2.26"/><path id="_Path_15" data-name="&lt;Path&gt;" class="cls-7" d="M23.83,116.75H21.57a2.26,2.26,0,0,0,0,4.52h2.26a2.26,2.26,0,0,0,0-4.52"/><path id="_Path_16" data-name="&lt;Path&gt;" class="cls-7" d="M37.4,116.75H32.88a2.26,2.26,0,0,0,0,4.52H37.4a2.26,2.26,0,0,0,0-4.52"/><path id="_Path_17" data-name="&lt;Path&gt;" class="cls-7" d="M48.71,116.75H46.45a2.26,2.26,0,0,0,0,4.52h2.26a2.26,2.26,0,0,0,0-4.52"/><path id="_Path_18" data-name="&lt;Path&gt;" class="cls-7" d="M62.28,116.75H57.75a2.26,2.26,0,0,0,0,4.52h4.52a2.26,2.26,0,0,0,0-4.52"/><path id="_Path_19" data-name="&lt;Path&gt;" class="cls-7" d="M69.72,117.4a2.26,2.26,0,1,0,3.21,0,2.37,2.37,0,0,0-3.21,0"/><path id="_Path_20" data-name="&lt;Path&gt;" class="cls-12" d="M53,87.35H22.49a2.84,2.84,0,0,1-2.84-2.84V63a2.84,2.84,0,0,1,2.84-2.84H53A2.84,2.84,0,0,1,55.84,63V84.51A2.84,2.84,0,0,1,53,87.35"/><path id="_Compound_Path_" data-name="&lt;Compound Path&gt;" class="cls-7" d="M53,89.61H22.49a5.11,5.11,0,0,1-5.1-5.1V63a5.11,5.11,0,0,1,5.1-5.1H53A5.11,5.11,0,0,1,58.1,63V84.51a5.11,5.11,0,0,1-5.1,5.1M22.49,62.47a.57.57,0,0,0-.58.58V84.51a.57.57,0,0,0,.58.58H53a.58.58,0,0,0,.58-.58V63a.58.58,0,0,0-.58-.58Z"/><path id="_Path_21" data-name="&lt;Path&gt;" class="cls-12" d="M55.84,63A2.84,2.84,0,0,0,53,60.21H36.06A2.84,2.84,0,0,0,33.22,63V84.51a2.84,2.84,0,0,0,2.84,2.84h3.37a2.84,2.84,0,0,0,2.84-2.84V72.09a2.84,2.84,0,0,1,2.84-2.84H53a2.84,2.84,0,0,0,2.84-2.84Z"/><path id="_Compound_Path_2" data-name="&lt;Compound Path&gt;" class="cls-7" d="M39.43,89.61H36.06a5.11,5.11,0,0,1-5.1-5.1V63a5.11,5.11,0,0,1,5.1-5.1H53A5.11,5.11,0,0,1,58.1,63v3.37a5.11,5.11,0,0,1-5.1,5.1H45.11a.57.57,0,0,0-.58.58V84.51a5.11,5.11,0,0,1-5.1,5.1M36.06,62.47a.57.57,0,0,0-.58.58V84.51a.57.57,0,0,0,.58.58h3.37a.58.58,0,0,0,.58-.58V72.09a5.11,5.11,0,0,1,5.1-5.1H53a.58.58,0,0,0,.58-.58V63a.58.58,0,0,0-.58-.58Z"/><path id="_Path_22" data-name="&lt;Path&gt;" class="cls-7" d="M55.84,80.56H42.27a2.26,2.26,0,1,1,0-4.52H55.84a2.26,2.26,0,0,1,0,4.52"/><path id="_Path_23" data-name="&lt;Path&gt;" class="cls-7" d="M33.22,71.52H19.65a2.26,2.26,0,1,1,0-4.52H33.22a2.26,2.26,0,1,1,0,4.52"/><path id="_Path_24" data-name="&lt;Path&gt;" class="cls-7" d="M33.22,80.56H19.65a2.26,2.26,0,1,1,0-4.52H33.22a2.26,2.26,0,1,1,0,4.52"/><path class="cls-10" d="M432.33,373.43v1.36h0v-1.36c-34.85,0-63.72,26.65-63.72,62.34H494C494,400.08,467.17,373.47,432.33,373.43Z"/><path class="cls-13" d="M429.31,373.45H464V338.78A34.67,34.67,0,0,1,429.31,373.45Z"/><path class="cls-13" d="M462,327.24a34.67,34.67,0,0,0-32.69-23.12v23.12Z"/><path class="cls-11" d="M429.31,373.45A34.68,34.68,0,0,0,462,327.24H429.31Z"/><path class="cls-13" d="M397.13,338.78v34.67H431.8A34.67,34.67,0,0,1,397.13,338.78Z"/><path class="cls-13" d="M431.8,327.24V304.12a34.67,34.67,0,0,0-32.69,23.12Z"/><path class="cls-11" d="M431.8,327.24H399.11a34.68,34.68,0,0,0,32.69,46.21Z"/><line class="cls-14" x1="204.73" y1="119.1" x2="277.59" y2="119.1"/><line class="cls-14" x1="276.67" y1="118.14" x2="276.67" y2="208.25"/><line class="cls-14" x1="276.67" y1="319.46" x2="276.67" y2="409.57"/><path class="cls-1" d="M268.79,143.82c-2.59.89-5.1,1.85-7.69,2.72v0h0c-.14,4.37,0,10.43,0,15a16.73,16.73,0,0,0,5.08,12.08A25,25,0,0,0,271,177.5c1,.66,4.91,3.06,6,2.68A29.65,29.65,0,0,0,287.45,173c5.24-6.11,4.53-10.72,4.53-18.07v-8.42c-1.67-.57-15-5.38-15.44-5.38"/><path class="cls-3" d="M276.56,143.75l-12.74,4.44-.05,9.59c.16,1.6-.09,3.31,0,4.93a15.05,15.05,0,0,0,1.06,4.44,6.76,6.76,0,0,0,.47.8,7.12,7.12,0,0,0,1,1.74l3.27,3.69c.26.24.35.21.75.52a33.26,33.26,0,0,0,4.23,2.84c.35.23,1.57.73,2,.91l0,0,0-33.87"/><path class="cls-1" d="M268.79,352.81c-2.59.89-5.1,1.85-7.69,2.72v0h0c-.14,4.37,0,10.43,0,15a16.73,16.73,0,0,0,5.08,12.08,25,25,0,0,0,4.79,3.92c1,.66,4.91,3.06,6,2.68A29.65,29.65,0,0,0,287.45,382c5.24-6.11,4.53-10.72,4.53-18.07v-8.42c-1.67-.57-15-5.38-15.44-5.38"/><path class="cls-3" d="M276.56,352.74l-12.74,4.44-.05,9.59c.16,1.6-.09,3.31,0,4.93a15.05,15.05,0,0,0,1.06,4.44,6.76,6.76,0,0,0,.47.8,7.12,7.12,0,0,0,1,1.74l3.27,3.69c.26.24.35.21.75.52a33.26,33.26,0,0,0,4.23,2.84c.35.23,1.57.73,2,.91l0,0,0-33.87"/><line class="cls-14" x1="275.66" y1="408.66" x2="347.62" y2="409.57"/><polygon class="cls-6" points="276.47 206.34 282 206.34 279.24 211.13 276.47 215.92 273.7 211.13 270.94 206.34 276.47 206.34"/><polygon class="cls-6" points="347.62 410.53 347.62 405 352.41 407.76 357.2 410.53 352.41 413.3 347.62 416.07 347.62 410.53"/></svg>