<svg id="support" xmlns="http://www.w3.org/2000/svg" viewBox="0 0 500 500"><defs><style>.cls-1{fill:none;stroke:#38454f;stroke-miterlimit:10;stroke-width:2px;}.cls-2{fill:#0b389c;}.cls-3{fill:#ef1f4b;}.cls-4{fill:#ffb743;}.cls-5{fill:#96c;}.cls-6,.cls-7{font-size:35.61px;}.cls-6{font-family:Montserrat-Medium, Montserrat;}.cls-7{font-family:KozGoPr6N-Bold-83pv-RKSJ-H, Kozuka Gothic Pr6N;}</style></defs><title>Artboard 1</title><path class="cls-1" d="M313.07,214a85.28,85.28,0,0,0-83.87-85.24v-.07c-.24,0-.48,0-.72,0s-.48,0-.72,0v.07A85.28,85.28,0,0,0,143.89,214"/><path class="cls-2" d="M232.25,290.75V291h0v-.24c-69.24.07-126.42,55.63-126.42,124.87H357.28A124.7,124.7,0,0,0,232.25,290.75Z"/><path class="cls-3" d="M227.56,289.06h66.05V223A66.05,66.05,0,0,1,227.56,289.06Z"/><path class="cls-3" d="M293.12,198.12a69.53,69.53,0,0,0-65.56-46.36v46.36Z"/><path class="cls-4" d="M227.56,290.79a69.54,69.54,0,0,0,65.56-92.67H227.56Z"/><path class="cls-3" d="M166.5,223v66.05h66.05A66.05,66.05,0,0,1,166.5,223Z"/><path class="cls-3" d="M232.55,198.12V151.76A69.53,69.53,0,0,0,167,198.12Z"/><path class="cls-4" d="M232.55,198.12H167a69.54,69.54,0,0,0,65.56,92.67Z"/><path class="cls-1" d="M226.33,272.69a64.12,64.12,0,0,0,79.56-37.94"/><path class="cls-5" d="M320.65,225.57a27.31,27.31,0,0,0-27.31-27.31v54.62a27.31,27.31,0,0,0,27.31-27.31Zm0,0"/><circle class="cls-5" cx="232.05" cy="275.84" r="8.91"/><path class="cls-5" d="M139.7,225.24A27.31,27.31,0,0,0,167,252.55V197.94a27.31,27.31,0,0,0-27.31,27.31Zm0,0"/><path class="cls-1" d="M313.07,214a85.28,85.28,0,0,0-83.87-85.24h-1.45A85.28,85.28,0,0,0,143.89,214"/><path class="cls-2" d="M226.32,290.75V291h0v-.24c-69.24.07-126.42,55.63-126.42,124.87H351.34A124.7,124.7,0,0,0,226.32,290.75Z"/><path class="cls-3" d="M227.23,289.23h66.05V223.17A66.05,66.05,0,0,1,227.23,289.23Z"/><path class="cls-3" d="M162.87,223.17v66.05h66.05A66.05,66.05,0,0,1,162.87,223.17Z"/><path class="cls-3" d="M228.29,151.76V198h64.82A68.15,68.15,0,0,0,228.29,151.76Z"/><path class="cls-3" d="M161.88,198h66.41V151.76C196.64,151.76,171.42,170.33,161.88,198Z"/><path class="cls-4" d="M297.25,221.23c0-8.12-1.57-15.29-4.14-23.21H162.38a72,72,0,0,0-3.59,23.21c0,38.27,29.94,69.35,69.51,69.55h0s-.06,0,0,0,0,0,0,0h0C265.88,290.58,297.25,259.5,297.25,221.23Z"/><path class="cls-1" d="M224,269A64.12,64.12,0,0,0,303.54,231"/><path class="cls-5" d="M320.16,225.33A27.31,27.31,0,0,0,292.85,198v54.62a27.31,27.31,0,0,0,27.31-27.31Zm0,0"/><circle class="cls-5" cx="228.76" cy="272.21" r="8.91"/><path class="cls-5" d="M135.91,225.24a27.31,27.31,0,0,0,27.31,27.31V197.94a27.31,27.31,0,0,0-27.31,27.31Zm0,0"/><path class="cls-4" d="M408.29,91.37c-48.63,0-88.05,38.64-88.05,86.31a85,85,0,0,0,21.27,56.21,58.83,58.83,0,0,1-20.89,27.87,60.83,60.83,0,0,0,50.88-5.68,89.18,89.18,0,0,0,36.79,7.9c48.63,0,88.05-38.64,88.05-86.3s-39.42-86.31-88.05-86.31Zm0,0"/><path class="cls-3" d="M68.54,169.65A60.95,60.95,0,1,0,94,286a41.37,41.37,0,0,0,35.22,4,41.48,41.48,0,0,1-14.46-19.68A60.93,60.93,0,0,0,68.54,169.65Zm0,0"/><path class="cls-5" d="M124.68,41a54.62,54.62,0,0,0-41.44,90.23,37.18,37.18,0,0,1-13,17.65,37.08,37.08,0,0,0,31.57-3.59A54.64,54.64,0,1,0,124.68,41Zm0,0"/><text class="cls-6" transform="translate(361.75 188.11)">Hello</text><text class="cls-7" transform="translate(32.94 239.4)">你好</text><text class="cls-6" transform="translate(83.55 105.9)">Hola</text></svg>