<svg id="book_tour" data-name="book tour" xmlns="http://www.w3.org/2000/svg" viewBox="0 0 500 500"><defs><style>.cls-1{fill:#96c;}.cls-2{fill:#38454f;}.cls-3{fill:#ee264c;}.cls-4{fill:#f5d110;}.cls-5{fill:#0cc;}.cls-6{fill:#fff;}.cls-7,.cls-8{fill:none;}.cls-7{stroke:#e7eced;stroke-miterlimit:10;stroke-width:2px;}.cls-9{font-size:23.01px;fill:#e7eced;font-family:Montserrat-Regular, Montserrat;}</style></defs><title>Artboard 1</title><path class="cls-1" d="M68,79c-1,0-44-33-44-33L36,36,98,61Z"/><polygon class="cls-1" points="43 96 109 59 130 73 68 108 41 114 29 110 28 103.5 43 96"/><rect class="cls-2" x="120" y="130.05" width="306.28" height="256.27" rx="5" ry="5"/><path class="cls-3" d="M144.29,144.32a6,6,0,1,1-6-6,6,6,0,0,1,6,6Zm0,0"/><path class="cls-4" d="M166.52,144.32a6,6,0,1,1-6-6,6,6,0,0,1,6,6Zm0,0"/><path class="cls-5" d="M188.75,144.32a6,6,0,1,1-6-6,6,6,0,0,1,6,6Zm0,0"/><path class="cls-4" d="M223.32,216.37c0,2.4-2.22,4.55-2.67,6.82s.75,5.17-.14,7.32-3.78,3.33-5.08,5.28-1.27,5-2.94,6.71-4.75,1.62-6.71,2.94-3.09,4.17-5.27,5.08-5-.32-7.32.14-4.42,2.67-6.82,2.67-4.55-2.22-6.82-2.67-5.17.75-7.32-.14-3.33-3.78-5.28-5.08-5-1.27-6.71-2.94-1.62-4.75-2.94-6.71-4.17-3.09-5.08-5.27.32-5-.14-7.32-2.67-4.42-2.67-6.82,2.22-4.55,2.67-6.82-.75-5.17.14-7.32,3.78-3.33,5.08-5.28,1.27-5,2.94-6.71,4.75-1.62,6.71-2.94,3.09-4.17,5.27-5.08,5,.32,7.32-.14,4.42-2.67,6.82-2.67,4.55,2.22,6.82,2.67,5.17-.75,7.32.14,3.33,3.78,5.28,5.08,5,1.27,6.71,2.94,1.62,4.75,2.94,6.71,4.17,3.09,5.08,5.27-.32,5,.14,7.32S223.32,214,223.32,216.37Z"/><path class="cls-6" d="M201.24,207.81l-2.71-2.71a1.92,1.92,0,0,0-2.71,0l-13.06,13.08-5.85-5.87a1.92,1.92,0,0,0-2.71,0L171.49,215a1.92,1.92,0,0,0,0,2.71l7.21,7.21,2.71,2.71a1.92,1.92,0,0,0,2.71,0l2.71-2.71,14.41-14.41a1.92,1.92,0,0,0,0-2.71Zm0,0"/><line class="cls-7" x1="136.01" y1="270.68" x2="257.97" y2="270.68"/><line class="cls-7" x1="136.01" y1="290.85" x2="257.97" y2="290.85"/><line class="cls-7" x1="136.01" y1="311.02" x2="257.97" y2="311.02"/><line class="cls-7" x1="136.01" y1="331.18" x2="257.97" y2="331.18"/><line class="cls-7" x1="136.01" y1="351.35" x2="257.97" y2="351.35"/><line class="cls-7" x1="305.12" y1="207.98" x2="406.37" y2="207.98"/><line class="cls-7" x1="305.12" y1="230.99" x2="406.37" y2="230.99"/><line class="cls-7" x1="305.12" y1="254" x2="406.37" y2="254"/><line class="cls-7" x1="305.12" y1="277.01" x2="406.37" y2="277.01"/><rect class="cls-8" x="114.15" y="187.67" width="8.28" height="6.7"/><rect class="cls-5" x="299.22" y="309.65" width="95.03" height="46.88" rx="5" ry="5"/><path class="cls-1" d="M132.69,73.35,107,58.34l1.94-1.09c9.18-5.4,40.34-15.22,46.41-7.31C160.06,56.12,142.44,66.43,132.69,73.35Z"/><path class="cls-1" d="M40.22,94.93,24.68,106,7.76,89.35l10.81-7.06L36.19,93.63A7.28,7.28,0,0,0,40.22,94.93Z"/><path class="cls-2" d="M158.13,47.78c-8.47-11-43.38,1.93-50.94,6.39l-1.94,1.09h0l-4.43,2.51L37.3,33.08a3.53,3.53,0,0,0-3.4.46L19.77,44.14a3.53,3.53,0,0,0,.11,5.73l42.7,29.56L42.41,90.86a3.25,3.25,0,0,1-2,.55h-.08a3.9,3.9,0,0,1-2.2-.75L20.48,79.32a3.53,3.53,0,0,0-3.84,0L5.82,86.4a3.53,3.53,0,0,0-.55,5.47L22.2,108.54h0l4.18,4.1c3.8,3.73,9.52,4.94,15.33,4.94,9.75,0,19.76-3.4,21.47-4,.56-.21,13.8-5.15,18.29-7.19,14.95-6.86,49.46-27.6,50.93-28.48.12-.07,1.58-1.14,2.29-1.63l0,0,0,0c1.45-1,3.08-2.14,4.78-3.3,11.11-7.56,19-13.37,20-19.48A7.21,7.21,0,0,0,158.13,47.78ZM27.92,46.86l8.64-6.48,56.31,21.9L69.4,75.57ZM18.58,86.5,33,95.76,25,101.42,13.35,89.91ZM78.52,100c-4.25,1.94-17.68,7-17.77,7-11,3.9-24.63,5.38-29.44.67l-1.17-1.15,11.28-8a10.08,10.08,0,0,0,4.66-1.53l60.86-34.46,19,11.1C117.32,78.66,90.71,94.36,78.52,100Zm57-32.86-3,2.07-18.3-10.68c12.08-5.56,35-10.76,38.36-6.3C153.32,55,139.94,64.11,135.55,67.09Z"/><line class="cls-7" x1="421.31" y1="162.45" x2="123.89" y2="161.09"/><path class="cls-3" d="M493.79,342.45v18.29a26.92,26.92,0,1,1-53.85,0V342.45a26.92,26.92,0,0,1,53.85,0Zm0,0"/><path class="cls-3" d="M485.91,323.41a26.92,26.92,0,0,0-46,19v18.29a26.89,26.89,0,0,0,12.45,22.7l35.19-58.17q-.8-1-1.68-1.85Zm0,0"/><path class="cls-4" d="M466.87,346.11a4.3,4.3,0,0,1-4.3-4.3V330.64a4.3,4.3,0,0,1,8.6,0v11.17a4.3,4.3,0,0,1-4.3,4.3Zm0,0"/><text class="cls-9" transform="translate(317.39 342.29)">Book</text><path class="cls-1" d="M293.43,204.18l-.92-.92a.65.65,0,0,0-.92,0l-4.43,4.43-2-2a.65.65,0,0,0-.92,0l-.92.92a.65.65,0,0,0,0,.92l2.44,2.44.92.92a.65.65,0,0,0,.92,0l.92-.92,4.88-4.88a.65.65,0,0,0,0-.92Zm0,0"/><path class="cls-1" d="M293.43,227.19l-.92-.92a.65.65,0,0,0-.92,0l-4.43,4.43-2-2a.65.65,0,0,0-.92,0l-.92.92a.65.65,0,0,0,0,.92l2.44,2.44.92.92a.65.65,0,0,0,.92,0l.92-.92,4.88-4.88a.65.65,0,0,0,0-.92Zm0,0"/><path class="cls-1" d="M293.43,273.2l-.92-.92a.65.65,0,0,0-.92,0l-4.43,4.43-2-2a.65.65,0,0,0-.92,0l-.92.92a.65.65,0,0,0,0,.92l2.44,2.44.92.92a.65.65,0,0,0,.92,0l.92-.92,4.88-4.88a.65.65,0,0,0,0-.92Zm0,0"/><rect class="cls-7" x="281" y="200" width="14" height="13"/><rect class="cls-7" x="281" y="269" width="14" height="13"/><rect class="cls-7" x="281" y="223" width="14" height="13"/></svg>