<svg id="Layer_1" data-name="Layer 1" xmlns="http://www.w3.org/2000/svg" viewBox="0 0 517.12 262.36"><defs><style>.cls-1{fill:#0cc;}.cls-2,.cls-4{fill:#ededef;}.cls-3{fill:none;}.cls-3,.cls-4{stroke:#0cc;stroke-miterlimit:10;}</style></defs><title>404</title><path class="cls-1" d="M370,88.9c2.75,2.3-64.34-70.45-76.28-78.93-9.67-6.86-21.6-6.65-21.6-6.65-2.43,3-3.67,18.86,10.17,32.7,7.7,7.7,30,25.56,48.19,39.89,4,3.49,8.77,7.47,14.11,12.11,14.3,12.4,5.28,28.49-9.56,18.22,0,0-.64-0.46-1-0.74-0.12-.1-0.27-0.23-0.39-0.35a2.88,2.88,0,0,0-.28-0.26A69.08,69.08,0,0,0,213.72,152c0,17.9,5.05,34,16.38,45.58,9.43,9.66,21.13,13.3,36.32,19.71l0.53,0.21-10.3,6.8a8.36,8.36,0,0,0-2.36,11.56h0a8.36,8.36,0,0,0,11.56,2.36l18.22-12L324.7,249.6a7.51,7.51,0,0,0,7.51-13l-34.12-19.7,19.6-12.94c0.57-.38,3.76-2.36,5.25-3.56,13.24-10.7,19.94-13.3,29-43.68a66.74,66.74,0,0,1,5-12.09,83.2,83.2,0,0,1,13-18.18s22.85,5.1,27.59-3.92C402.1,113.73,367.26,86.6,370,88.9Z" transform="translate(-6.44 -3.33)"/><path class="cls-1" d="M117.26,260.28V226.49a5.41,5.41,0,0,0-5.41-5.41H40.33a5.41,5.41,0,0,1-5.41-5.41V198.88a5.41,5.41,0,0,1,1-3.17l80-110.42A5.41,5.41,0,0,1,120.32,83h21.77a5.41,5.41,0,0,1,5.41,5.41V195.9a5.41,5.41,0,0,0,5.41,5.41h15.53a5.41,5.41,0,0,1,5.41,5.41v8.94a5.41,5.41,0,0,1-5.41,5.41H152.91a5.41,5.41,0,0,0-5.41,5.41v33.79a5.41,5.41,0,0,1-5.41,5.41H122.67A5.41,5.41,0,0,1,117.26,260.28Zm-42.52-59h37.11a5.41,5.41,0,0,0,5.41-5.41V143.59a5.41,5.41,0,0,0-9.82-3.13L70.32,192.77A5.41,5.41,0,0,0,74.74,201.31Z" transform="translate(-6.44 -3.33)"/><rect class="cls-2" x="73.38" y="85.89" width="40.54" height="6.17" rx="3.09" ry="3.09"/><rect class="cls-1" x="75.52" y="79.71" width="40.54" height="6.17" rx="3.09" ry="3.09"/><rect class="cls-2" x="191.14" y="192.49" width="40.54" height="6.17" rx="3.09" ry="3.09"/><rect class="cls-1" x="162.47" y="145.71" width="48.78" height="6.17" rx="3.09" ry="3.09"/><rect class="cls-2" x="179.27" y="164.23" width="34.03" height="6.17" rx="3.09" ry="3.09"/><rect class="cls-1" x="182.12" y="158.06" width="40.54" height="6.17" rx="3.09" ry="3.09"/><rect class="cls-1" x="175.97" y="197.95" width="72.16" height="6.17" rx="3.09" ry="3.09"/><rect class="cls-2" x="237.62" y="230.52" width="16.56" height="2.92" rx="1.46" ry="1.46"/><rect class="cls-1" x="237.14" y="227.52" width="16.56" height="2.92" rx="1.46" ry="1.46"/><rect class="cls-2" x="294.88" y="238.15" width="16.56" height="2.92" rx="1.46" ry="1.46"/><rect class="cls-2" x="283.71" y="232.19" width="16.56" height="2.92" rx="1.46" ry="1.46"/><rect class="cls-1" x="294.39" y="235.15" width="16.56" height="2.92" rx="1.46" ry="1.46"/><rect class="cls-1" x="283.07" y="229.22" width="16.56" height="2.92" rx="1.46" ry="1.46"/><rect class="cls-1" x="191.73" y="170.41" width="34.06" height="6.17" rx="3.09" ry="3.09"/><rect class="cls-2" x="208.94" y="90.87" width="40.54" height="6.17" rx="3.09" ry="3.09"/><rect class="cls-1" x="173.93" y="84.7" width="78.4" height="6.17" rx="3.09" ry="3.09"/><rect class="cls-2" x="218.2" y="103.22" width="22.17" height="6.17" rx="3.09" ry="3.09"/><rect class="cls-1" x="221.05" y="97.04" width="40.54" height="6.17" rx="3.09" ry="3.09"/><rect class="cls-2" y="199.85" width="36.28" height="6.17" rx="3.09" ry="3.09"/><rect class="cls-1" x="6.06" y="193.67" width="30.23" height="6.17" rx="3.09" ry="3.09"/><rect class="cls-2" x="23.5" y="154.97" width="36.28" height="6.17" rx="3.09" ry="3.09"/><rect class="cls-1" x="33.71" y="148.98" width="30.23" height="6.17" rx="3.09" ry="3.09"/><rect class="cls-2" x="32.05" y="142.87" width="36.28" height="6.17" rx="3.09" ry="3.09"/><rect class="cls-1" x="43.09" y="136.69" width="30.23" height="6.17" rx="3.09" ry="3.09"/><rect class="cls-2" x="76.92" y="246.5" width="36.28" height="6.17" rx="3.09" ry="3.09"/><rect class="cls-1" x="86.54" y="240.32" width="30.23" height="6.17" rx="3.09" ry="3.09"/><rect class="cls-2" x="85.47" y="234.39" width="36.28" height="6.17" rx="3.09" ry="3.09"/><rect class="cls-1" x="95.09" y="228.33" width="30.23" height="6.17" rx="3.09" ry="3.09"/><path class="cls-1" d="M467,259.46V227.31a6.23,6.23,0,0,0-6.23-6.23H390.86a6.23,6.23,0,0,1-6.23-6.23v-15.7a6.23,6.23,0,0,1,1.19-3.66L465.4,85.62a6.23,6.23,0,0,1,5-2.58H491a6.23,6.23,0,0,1,6.23,6.23v105.8a6.23,6.23,0,0,0,6.23,6.23h13.88a6.23,6.23,0,0,1,6.23,6.23v7.3a6.23,6.23,0,0,1-6.23,6.23H503.44a6.23,6.23,0,0,0-6.23,6.23v32.15a6.23,6.23,0,0,1-6.23,6.23H473.2A6.23,6.23,0,0,1,467,259.46ZM426,201.31h34.7a6.23,6.23,0,0,0,6.23-6.23V146.17a6.23,6.23,0,0,0-11.31-3.61L421,191.48A6.23,6.23,0,0,0,426,201.31Z" transform="translate(-6.44 -3.33)"/><rect class="cls-2" x="423.09" y="85.89" width="40.54" height="6.17" rx="3.09" ry="3.09"/><rect class="cls-1" x="426.48" y="79.71" width="40.54" height="6.17" rx="3.09" ry="3.09"/><rect class="cls-2" x="349.71" y="199.85" width="36.28" height="6.17" rx="3.09" ry="3.09"/><rect class="cls-1" x="355.77" y="193.67" width="30.23" height="6.17" rx="3.09" ry="3.09"/><rect class="cls-2" x="373.22" y="154.97" width="36.28" height="6.17" rx="3.09" ry="3.09"/><rect class="cls-1" x="382.83" y="148.8" width="30.23" height="6.17" rx="3.09" ry="3.09"/><rect class="cls-2" x="381.76" y="142.87" width="36.28" height="6.17" rx="3.09" ry="3.09"/><rect class="cls-1" x="392.81" y="136.69" width="30.23" height="6.17" rx="3.09" ry="3.09"/><rect class="cls-2" x="426.64" y="246.5" width="36.28" height="6.17" rx="3.09" ry="3.09"/><rect class="cls-1" x="436.25" y="240.32" width="30.23" height="6.17" rx="3.09" ry="3.09"/><rect class="cls-2" x="435.18" y="234.39" width="36.28" height="6.17" rx="3.09" ry="3.09"/><rect class="cls-1" x="444.8" y="228.33" width="30.23" height="6.17" rx="3.09" ry="3.09"/><ellipse class="cls-1" cx="193.12" cy="113.07" rx="13.04" ry="14.18"/><path class="cls-3" d="M335.27,105.89" transform="translate(-6.44 -3.33)"/><circle class="cls-4" cx="373.95" cy="104.46" r="3.09"/><path class="cls-2" d="M263.11,187.58c0.86-.57,2.2-0.45,3.68.32l0.07,0c3.77,1.78,12.47,1.85,12.73,1.85,23.14,0,38.41-14.55,38.41-37.7a42,42,0,0,0-42-42h-1.1a42.08,42.08,0,0,0-30.46,14.29s-0.86,1.86.23,2.83a2.43,2.43,0,0,0,3,0A37.8,37.8,0,0,1,275,114.41h1a37.74,37.74,0,0,1,37.7,37.7c0,20.79-13.35,33.42-34.12,33.42-1.42,0-8.46-.29-10.89-1.43-2.89-1.49-5.79-1.52-8-.08a6.08,6.08,0,0,0-2.7,5.54,7.05,7.05,0,0,0,4.35,5.78L300.48,218l3.21-2.91-39.22-23.51-0.19-.1a3,3,0,0,1-2-2.27A1.78,1.78,0,0,1,263.11,187.58Z" transform="translate(-6.44 -3.33)"/><path class="cls-1" d="M268,130.64" transform="translate(-6.44 -3.33)"/><rect class="cls-2" x="171.25" y="112.68" width="17.11" height="3.29" rx="1.65" ry="1.65"/><rect class="cls-1" x="168.97" y="109.39" width="20.59" height="3.29" rx="1.65" ry="1.65"/></svg>