<?xml version="1.0" encoding="utf-8"?>
<!-- Generator: Adobe Illustrator 19.2.1, SVG Export Plug-In . SVG Version: 6.00 Build 0)  -->
<svg version="1.1" id="Layer_3" xmlns="http://www.w3.org/2000/svg" xmlns:xlink="http://www.w3.org/1999/xlink" x="0px" y="0px"
	 viewBox="0 0 150 150" style="enable-background:new 0 0 150 150;" xml:space="preserve">
<style type="text/css">
	.st0{fill:#04AAA5;}
</style>
<title>cooperate</title>
<path class="st0" d="M40.1,77.9l1.9,1.9c2.7,2.7,2.7,7,0,9.7l-10,10c-2.7,2.7-7,2.7-9.7,0l-1.9-1.9c-2.7-2.7-2.7-7,0-9.7l10-10
	C33.1,75.2,37.4,75.2,40.1,77.9z"/>
<path class="st0" d="M56,94.1l0.7,0.7c2.7,2.7,2.7,7,0,9.7l-9.8,9.8c-2.7,2.7-7,2.7-9.7,0l-0.7-0.7c-2.7-2.7-2.7-7,0-9.7l9.8-9.8
	C49,91.4,53.3,91.4,56,94.1z"/>
<path class="st0" d="M71.4,108.5l1,1c2.7,2.7,2.7,7,0,9.7l-10.3,10.3c-2.7,2.7-7,2.7-9.7,0l-1-1c-2.7-2.7-2.7-7,0-9.7l10.3-10.3
	C64.4,105.8,68.8,105.8,71.4,108.5z"/>
<path class="st0" d="M84.9,124.9l0.8,0.8c2.7,2.7,2.7,7,0,9.7l-8.6,8.6c-2.7,2.7-7,2.7-9.7,0l-0.8-0.8c-2.7-2.7-2.7-7,0-9.7l8.6-8.6
	C77.9,122.2,82.3,122.2,84.9,124.9z"/>
<path class="st0" d="M87.1,108.6l2-2c2.2-2.2,5.8-2.2,8.1,0l10.2,10.2c2.2,2.2,2.2,5.8,0,8.1l-2,2c-2.2,2.2-5.8,2.2-8.1,0
	l-10.2-10.2C84.9,114.4,84.9,110.8,87.1,108.6z"/>
<path class="st0" d="M102.1,92.5l1.4-1.4c2.2-2.2,5.8-2.2,8.1,0l10.2,10.2c2.2,2.2,2.2,5.8,0,8.1l-1.4,1.4c-2.2,2.2-5.8,2.2-8.1,0
	l-10.2-10.2C99.9,98.3,99.9,94.7,102.1,92.5z"/>
<path class="st0" d="M122.5,82.2l1.7-1.7c2.2-2.2,5.8-2.2,8.1,0l3.5,3.5c2.2,2.2,2.2,5.8,0,8.1l-1.7,1.7c-2.2,2.2-5.8,2.2-8.1,0
	l-3.5-3.5C120.3,88,120.3,84.4,122.5,82.2z"/>
<path class="st0" d="M48.4,51.4c10.7,8.8,18.8,1,18.8,1s12.3-11.5,17.6-17.7c5.3-6.2,9.3-1.8,9.3-1.8L139,77
	c5.2-9.7,8.4-19.6,8.4-29.2c0-21.2-17.2-38.4-38.4-38.4c-14.5,0-22.5,3.9-35.7,16.6L48.4,51.4z"/>
<path class="st0" d="M93.3,61.3L125,92.6l2.5,2c0,0,0.7,0.2,0.3-0.1c-0.4-0.3,5.2-7.2,7.7-11.2c-8-7.8-37.1-36.1-41-40.2
	c-4.6-4.7-6.8-1.6-6.8-1.6s-6.1,6.3-18.6,17.7s-32.5-6.7-32.5-6.7l32-32.4C53.2,5.5,28.8,5.9,14.1,21.2C7.2,28.3,3.3,37.9,3.3,47.9
	c0,12.2,5.3,24.9,13,37l11.5-11.5c4.7-4.7,12.3-4.7,17,0l1.6,1.6c2.6,2.6,3.8,6.2,3.4,9.8c3.7-0.4,7.3,0.8,9.9,3.4l1.6,1.6
	c2.6,2.6,3.9,6.3,3.4,9.9c3.8-0.5,7.6,0.7,10.3,3.4l1.6,1.5c3.4,3.4,4.4,8.4,2.7,12.9c3.5-1.3,7.3-0.4,9.9,2.2l3.1,3.1
	c6.2,5.5,9.3,7.2,11.8,4.5c1.7-1.9,2.4-8.9,3.7-10.3L72.6,82c-1.6-1.6-1.6-4.1,0-5.6c1.6-1.6,4.1-1.6,5.6,0l35,35
	c3-3.2,6-6.5,8.9-10L87.7,66.9c-1.6-1.6-1.6-4.1,0-5.6C89.3,59.7,91.8,59.7,93.3,61.3z"/>
</svg>
