<svg id="original_copy" data-name="original copy" xmlns="http://www.w3.org/2000/svg" viewBox="0 0 150 150"><defs><style>.cls-1{fill:#f5d10a;}.cls-2{fill:#04aaa5;}.cls-3{fill:#38454f;}</style></defs><title>help_travellers</title><path class="cls-1" d="M64.09,10.9a3.18,3.18,0,0,1,3.18-3.18H82a3.18,3.18,0,0,1,3.18,3.18h0v5.22A46.41,46.41,0,0,1,91.5,18V10.9A9.55,9.55,0,0,0,82,1.36H67.27a9.55,9.55,0,0,0-9.54,9.54V18a48.18,48.18,0,0,1,6.36-1.92V10.9Z"/><path class="cls-1" d="M36.11,98.67a1.45,1.45,0,0,0,1,.44,1.4,1.4,0,0,0,1.55-1.38l0-9.67h79.93V85.62a9.08,9.08,0,0,0-9.08-9.08h-69a9.08,9.08,0,0,0-9.09,9.07h0v2.44H35.7v9.55A1.79,1.79,0,0,0,36.11,98.67Z"/><path class="cls-2" d="M38.64,88V97.6a1.48,1.48,0,0,1-1.47,1.49,1.45,1.45,0,0,1-1-.44,1.49,1.49,0,0,1-.44-1V88H31.36v29.69a9.12,9.12,0,0,0,9.1,9.13h69.09a9.12,9.12,0,0,0,9.1-9.13V88h-80Z"/><path class="cls-3" d="M122.66,62.4a47.55,47.55,0,0,0-14-33.72h0A47.58,47.58,0,0,0,91.86,17.8a45.84,45.84,0,0,0-6.36-1.92A47.48,47.48,0,0,0,75,14.72,46.91,46.91,0,0,0,58.09,17.8,47.7,47.7,0,0,0,27.28,62.41v70h0v16.48h95.38V132.7h0V62.4ZM31.41,85.69a9.08,9.08,0,0,1,9.08-9.08h69a9.08,9.08,0,0,1,9.09,9.07h0v32a9.08,9.08,0,0,1-9.08,9.08h-69a9.09,9.09,0,0,1-9.09-9.08v-32Z"/></svg>