<?xml version="1.0" encoding="utf-8"?>
<!-- Generator: Adobe Illustrator 19.2.1, SVG Export Plug-In . SVG Version: 6.00 Build 0)  -->
<svg version="1.1" id="compressed" xmlns="http://www.w3.org/2000/svg" xmlns:xlink="http://www.w3.org/1999/xlink" x="0px" y="0px"
	 viewBox="0 0 150 150" style="enable-background:new 0 0 150 150;" xml:space="preserve">
<style type="text/css">
	.st0{fill:#EF1F4B;}
	.st1{fill:#F5D10A;}
	.st2{fill:#AFB6BB;}
	.st3{fill:#38454F;}
	.st4{fill:#0B389C;}
</style>
<title>help_account related</title>
<path class="st0" d="M62.7,66.9h30.9V36C93.6,53.1,79.8,66.9,62.7,66.9L62.7,66.9z"/>
<path class="st0" d="M32.6,36v30.9h30.9C46.5,66.9,32.6,53.1,32.6,36L32.6,36z"/>
<path class="st0" d="M63,2.6C48,2.6,36.6,11,32.2,24H63h30.5C89.1,11,77,2.6,63,2.6z"/>
<path class="st1" d="M95.3,35c0-3.7-0.6-7.5-1.8-11H32.4c-1.2,3.5-1.9,7.3-1.8,11c0,17.9,14.5,32.5,32.4,32.6l0,0
	C80,67.5,95.3,52.9,95.3,35z"/>
<path class="st2" d="M147.3,111c0-15.2-12.3-27.5-27.5-27.5S92.3,95.8,92.3,111s12.3,27.5,27.5,27.5l0,0
	C135,138.5,147.3,126.2,147.3,111L147.3,111z"/>
<path class="st3" d="M143,113.8v-5.6l-5.3-1.7c-0.4-1.8-1.2-3.4-2.1-5l2.6-4.9l-4-4l-5,2.6c-1.6-0.9-3.2-1.6-5-2.1l-1.7-5.3H117
	l-1.7,5.3c-1.8,0.4-3.4,1.1-5,2.1l-5-2.6l-4,4l2.6,4.9c-0.9,1.6-1.7,3.2-2.1,5l-5.3,1.7v5.6l5.3,1.7c0.4,1.8,1.1,3.5,2.1,5.1
	l-2.6,4.9l4,4l4.9-2.6c1.6,0.9,3.3,1.6,5.1,2.1l1.7,5.3h5.6l1.7-5.3c1.8-0.4,3.5-1.2,5.1-2.1l4.9,2.5l4-4l-2.6-4.9
	c1-1.6,1.7-3.3,2.1-5.1L143,113.8z M119.7,123.3c-6.8,0-12.3-5.5-12.3-12.3s5.5-12.3,12.3-12.3s12.3,5.5,12.3,12.2
	C132,117.8,126.5,123.3,119.7,123.3L119.7,123.3L119.7,123.3z"/>
<path class="st4" d="M87.5,111.1c0-11.2,5.7-21.5,15.1-27.5C92,73.3,77.8,67.6,63,67.6C30,67.6,3.2,94,3.2,126h87.9
	C88.7,121.4,87.5,116.3,87.5,111.1z"/>
</svg>
