<svg id="Layer_1" data-name="Layer 1" xmlns="http://www.w3.org/2000/svg" viewBox="0 0 1224.5 383.3"><defs><style>.cls-1,.cls-2,.cls-3,.cls-5{fill:#fff;}.cls-1{stroke:#000;}.cls-1,.cls-2,.cls-3,.cls-4{stroke-miterlimit:10;}.cls-2,.cls-3,.cls-4{stroke:#fff;}.cls-2{stroke-width:4px;}.cls-3{stroke-width:2px;}.cls-4{fill:none;stroke-width:8px;}</style></defs><title>logo</title><g id="Layer_2" data-name="Layer 2"><path class="cls-1" d="M483.16,209.26h0.42l66-65.16h28.61l-71.85,67.67L582.58,292H552.92l-69.34-76.44h-0.42V292H462.48V144.1h20.68v65.16Z"/><path class="cls-1" d="M693.06,242.26A53.48,53.48,0,0,1,689,263.35,50.12,50.12,0,0,1,677.71,280a50.87,50.87,0,0,1-17,10.86,59.52,59.52,0,0,1-42.19,0A49.68,49.68,0,0,1,601.58,280a50.9,50.9,0,0,1-11.17-16.6,53.49,53.49,0,0,1-4.07-21.09,52.75,52.75,0,0,1,4.07-21,50,50,0,0,1,11.17-16.4,50.56,50.56,0,0,1,16.92-10.76,59.52,59.52,0,0,1,42.19,0,51.8,51.8,0,0,1,17,10.76A49.27,49.27,0,0,1,689,221.27,52.74,52.74,0,0,1,693.06,242.26Zm-20.47.1a41.73,41.73,0,0,0-2.2-13.54A34.3,34.3,0,0,0,664,217.48a30.71,30.71,0,0,0-10.37-7.81,35.74,35.74,0,0,0-28.29,0A30.67,30.67,0,0,0,615,217.48a34.24,34.24,0,0,0-6.39,11.35,42.75,42.75,0,0,0,0,27.07A35.42,35.42,0,0,0,615,267.35a30.08,30.08,0,0,0,10.37,7.91,35.78,35.78,0,0,0,28.29,0A30.12,30.12,0,0,0,664,267.35a35.48,35.48,0,0,0,6.39-11.45A41.71,41.71,0,0,0,672.59,242.36Z"/><path class="cls-1" d="M820.46,242.26a53.48,53.48,0,0,1-4.07,21.09A50.12,50.12,0,0,1,805.11,280a50.87,50.87,0,0,1-17,10.86,59.52,59.52,0,0,1-42.19,0A49.67,49.67,0,0,1,729,280a50.89,50.89,0,0,1-11.17-16.6,53.49,53.49,0,0,1-4.07-21.09,52.76,52.76,0,0,1,4.07-21A50,50,0,0,1,729,204.87a50.56,50.56,0,0,1,16.92-10.76,59.52,59.52,0,0,1,42.19,0,51.8,51.8,0,0,1,17,10.76,49.27,49.27,0,0,1,11.28,16.4A52.74,52.74,0,0,1,820.46,242.26Zm-20.47.1a41.73,41.73,0,0,0-2.2-13.54,34.3,34.3,0,0,0-6.39-11.35A30.71,30.71,0,0,0,781,209.67a35.74,35.74,0,0,0-28.29,0,30.67,30.67,0,0,0-10.37,7.81A34.25,34.25,0,0,0,736,228.83a42.76,42.76,0,0,0,0,27.07,35.43,35.43,0,0,0,6.39,11.45,30.08,30.08,0,0,0,10.37,7.91,35.78,35.78,0,0,0,28.29,0,30.12,30.12,0,0,0,10.37-7.91,35.48,35.48,0,0,0,6.39-11.45A41.71,41.71,0,0,0,800,242.36Z"/><path class="cls-1" d="M896.06,209H869.74v51.43q0,9,3.34,12.8t10.65,3.85a32.31,32.31,0,0,0,5.85-.57,23.72,23.72,0,0,0,5.64-1.72l0.63,16.08a48,48,0,0,1-7.83,2,52.8,52.8,0,0,1-8.88.73q-14,0-21.41-7.73t-7.41-23.18V209h-19V193h19v-28.4h19.42V193h26.32V209Z"/><path class="cls-1" d="M1016.57,242.26a53.49,53.49,0,0,1-4.07,21.09,50.12,50.12,0,0,1-11.28,16.6,50.86,50.86,0,0,1-17,10.86,59.52,59.52,0,0,1-42.19,0A49.67,49.67,0,0,1,925.09,280a50.89,50.89,0,0,1-11.17-16.6,53.49,53.49,0,0,1-4.07-21.09,52.76,52.76,0,0,1,4.07-21,50,50,0,0,1,11.17-16.4A50.56,50.56,0,0,1,942,194.12a59.52,59.52,0,0,1,42.19,0,51.79,51.79,0,0,1,17,10.76,49.27,49.27,0,0,1,11.28,16.4A52.76,52.76,0,0,1,1016.57,242.26Zm-20.47.1a41.71,41.71,0,0,0-2.2-13.54,34.27,34.27,0,0,0-6.39-11.35,30.69,30.69,0,0,0-10.37-7.81,35.73,35.73,0,0,0-28.29,0,30.66,30.66,0,0,0-10.37,7.81,34.21,34.21,0,0,0-6.39,11.35,42.76,42.76,0,0,0,0,27.07,35.39,35.39,0,0,0,6.39,11.45,30.08,30.08,0,0,0,10.37,7.91,35.78,35.78,0,0,0,28.29,0,30.1,30.1,0,0,0,10.37-7.91,35.45,35.45,0,0,0,6.39-11.45A41.68,41.68,0,0,0,996.1,242.36Z"/><path class="cls-1" d="M1113.47,292q-0.42-3.76-.63-8.46t-0.21-7.83h-0.42q-3.76,7.94-12.64,13.47a36.58,36.58,0,0,1-19.74,5.53,40.37,40.37,0,0,1-16.6-3.13,30.59,30.59,0,0,1-11.49-8.67,37,37,0,0,1-6.68-12.84,54.25,54.25,0,0,1-2.19-15.66V193h19.63v54.72a69.1,69.1,0,0,0,.94,11.59,27.69,27.69,0,0,0,3.45,9.71,18.67,18.67,0,0,0,6.89,6.68q4.39,2.51,11.28,2.51a23.68,23.68,0,0,0,19.21-8.88q7.31-8.87,7.31-23.71V193h19.63v77.69q0,4,.21,10.23t0.63,11.07h-18.59Z"/><path class="cls-1" d="M1165.06,204q-0.21-6.27-.63-11.07H1183q0.42,3.76.63,8.67t0.21,8h0.63a34.25,34.25,0,0,1,12.22-14.1,32,32,0,0,1,18.07-5.33,30.59,30.59,0,0,1,7.73.83l-0.84,18.17a37,37,0,0,0-9-1,27.24,27.24,0,0,0-12.32,2.61,25.17,25.17,0,0,0-8.67,7,29.57,29.57,0,0,0-5.12,10.13,42.7,42.7,0,0,0-1.67,12v52h-19.63V214.27Q1165.27,210.31,1165.06,204Z"/><path class="cls-1" d="M483.16,209.26h0.42l66-65.16h28.61l-71.85,67.67L582.58,292H552.92l-69.34-76.44h-0.42V292H462.48V144.1h20.68v65.16Z"/><path class="cls-1" d="M693.06,242.26A53.48,53.48,0,0,1,689,263.35,50.12,50.12,0,0,1,677.71,280a50.87,50.87,0,0,1-17,10.86,59.52,59.52,0,0,1-42.19,0A49.68,49.68,0,0,1,601.58,280a50.9,50.9,0,0,1-11.17-16.6,53.49,53.49,0,0,1-4.07-21.09,52.75,52.75,0,0,1,4.07-21,50,50,0,0,1,11.17-16.4,50.56,50.56,0,0,1,16.92-10.76,59.52,59.52,0,0,1,42.19,0,51.8,51.8,0,0,1,17,10.76A49.27,49.27,0,0,1,689,221.27,52.74,52.74,0,0,1,693.06,242.26Zm-20.47.1a41.73,41.73,0,0,0-2.2-13.54A34.3,34.3,0,0,0,664,217.48a30.71,30.71,0,0,0-10.37-7.81,35.74,35.74,0,0,0-28.29,0A30.67,30.67,0,0,0,615,217.48a34.24,34.24,0,0,0-6.39,11.35,42.75,42.75,0,0,0,0,27.07A35.42,35.42,0,0,0,615,267.35a30.08,30.08,0,0,0,10.37,7.91,35.78,35.78,0,0,0,28.29,0A30.12,30.12,0,0,0,664,267.35a35.48,35.48,0,0,0,6.39-11.45A41.71,41.71,0,0,0,672.59,242.36Z"/><path class="cls-1" d="M820.46,242.26a53.48,53.48,0,0,1-4.07,21.09A50.12,50.12,0,0,1,805.11,280a50.87,50.87,0,0,1-17,10.86,59.52,59.52,0,0,1-42.19,0A49.67,49.67,0,0,1,729,280a50.89,50.89,0,0,1-11.17-16.6,53.49,53.49,0,0,1-4.07-21.09,52.76,52.76,0,0,1,4.07-21A50,50,0,0,1,729,204.87a50.56,50.56,0,0,1,16.92-10.76,59.52,59.52,0,0,1,42.19,0,51.8,51.8,0,0,1,17,10.76,49.27,49.27,0,0,1,11.28,16.4A52.74,52.74,0,0,1,820.46,242.26Zm-20.47.1a41.73,41.73,0,0,0-2.2-13.54,34.3,34.3,0,0,0-6.39-11.35A30.71,30.71,0,0,0,781,209.67a35.74,35.74,0,0,0-28.29,0,30.67,30.67,0,0,0-10.37,7.81A34.25,34.25,0,0,0,736,228.83a42.76,42.76,0,0,0,0,27.07,35.43,35.43,0,0,0,6.39,11.45,30.08,30.08,0,0,0,10.37,7.91,35.78,35.78,0,0,0,28.29,0,30.12,30.12,0,0,0,10.37-7.91,35.48,35.48,0,0,0,6.39-11.45A41.71,41.71,0,0,0,800,242.36Z"/><path class="cls-1" d="M896.06,209H869.74v51.43q0,9,3.34,12.8t10.65,3.85a32.31,32.31,0,0,0,5.85-.57,23.72,23.72,0,0,0,5.64-1.72l0.63,16.08a48,48,0,0,1-7.83,2,52.8,52.8,0,0,1-8.88.73q-14,0-21.41-7.73t-7.41-23.18V209h-19V193h19v-28.4h19.42V193h26.32V209Z"/><path class="cls-1" d="M1016.57,242.26a53.49,53.49,0,0,1-4.07,21.09,50.12,50.12,0,0,1-11.28,16.6,50.86,50.86,0,0,1-17,10.86,59.52,59.52,0,0,1-42.19,0A49.67,49.67,0,0,1,925.09,280a50.89,50.89,0,0,1-11.17-16.6,53.49,53.49,0,0,1-4.07-21.09,52.76,52.76,0,0,1,4.07-21,50,50,0,0,1,11.17-16.4A50.56,50.56,0,0,1,942,194.12a59.52,59.52,0,0,1,42.19,0,51.79,51.79,0,0,1,17,10.76,49.27,49.27,0,0,1,11.28,16.4A52.76,52.76,0,0,1,1016.57,242.26Zm-20.47.1a41.71,41.71,0,0,0-2.2-13.54,34.27,34.27,0,0,0-6.39-11.35,30.69,30.69,0,0,0-10.37-7.81,35.73,35.73,0,0,0-28.29,0,30.66,30.66,0,0,0-10.37,7.81,34.21,34.21,0,0,0-6.39,11.35,42.76,42.76,0,0,0,0,27.07,35.39,35.39,0,0,0,6.39,11.45,30.08,30.08,0,0,0,10.37,7.91,35.78,35.78,0,0,0,28.29,0,30.1,30.1,0,0,0,10.37-7.91,35.45,35.45,0,0,0,6.39-11.45A41.68,41.68,0,0,0,996.1,242.36Z"/><path class="cls-1" d="M1113.47,292q-0.42-3.76-.63-8.46t-0.21-7.83h-0.42q-3.76,7.94-12.64,13.47a36.58,36.58,0,0,1-19.74,5.53,40.37,40.37,0,0,1-16.6-3.13,30.59,30.59,0,0,1-11.49-8.67,37,37,0,0,1-6.68-12.84,54.25,54.25,0,0,1-2.19-15.66V193h19.63v54.72a69.1,69.1,0,0,0,.94,11.59,27.69,27.69,0,0,0,3.45,9.71,18.67,18.67,0,0,0,6.89,6.68q4.39,2.51,11.28,2.51a23.68,23.68,0,0,0,19.21-8.88q7.31-8.87,7.31-23.71V193h19.63v77.69q0,4,.21,10.23t0.63,11.07h-18.59Z"/><path class="cls-1" d="M1165.06,204q-0.21-6.27-.63-11.07H1183q0.42,3.76.63,8.67t0.21,8h0.63a34.25,34.25,0,0,1,12.22-14.1,32,32,0,0,1,18.07-5.33,30.59,30.59,0,0,1,7.73.83l-0.84,18.17a37,37,0,0,0-9-1,27.24,27.24,0,0,0-12.32,2.61,25.17,25.17,0,0,0-8.67,7,29.57,29.57,0,0,0-5.12,10.13,42.7,42.7,0,0,0-1.67,12v52h-19.63V214.27Q1165.27,210.31,1165.06,204Z"/></g><g id="Layer_1-2" data-name="Layer 1"><path class="cls-2" d="M359.6,33.4L356,31.1l-1.9-1.2-2.4-1.4L349,26.9c-1-.6-2.1-1.1-3.2-1.7A101.57,101.57,0,0,0,329.2,18a108.83,108.83,0,0,0-22.6-5.1c-2.1-.3-4.3-0.4-6.4-0.6-1.1-.1-2.2-0.1-3.3-0.1s-2.2-.1-3.4-0.1a129.92,129.92,0,0,0-14,.8,158.83,158.83,0,0,0-29.7,6.4,221.69,221.69,0,0,0-30.4,12.2c-10.2,5-20.1,10.5-29.8,16.5s-19.2,12.6-28.4,19.3c-2.3,1.7-4.5,3.4-6.8,5.1L151,74.9l-3.3,2.6c-4.4,3.4-8.7,6.9-12.9,10.3-8.4,6.9-16.3,13.8-23.7,20.5s-14.3,13.1-20.6,19.2c-12.6,12-22.7,22.4-29.7,29.9-3.5,3.7-6.2,6.7-8,8.7L50,169.2l0.5-.9c0.4-.6.9-1.5,1.6-2.7,1.5-2.3,3.6-5.8,6.5-10.1s6.5-9.4,10.8-15.1,9.4-12.1,15.1-18.8,12.1-13.9,19.1-21.2,14.7-14.9,22.9-22.3c4.1-3.8,8.4-7.5,12.7-11.1s8.9-7.3,13.5-10.9c9.2-7.2,19-14,29.1-20.4,5.1-3.1,10.3-6.1,15.5-9,2.6-1.4,5.3-2.8,7.9-4.1l4-2,4-1.9c2.7-1.3,5.4-2.4,8.1-3.5a81.13,81.13,0,0,1,8.2-3.1q8.25-3,16.5-5.1a148.47,148.47,0,0,1,32.5-4.9c1.3,0,2.6-.1,3.9-0.1l3.9,0.1h1.9l1.9,0.1,3.7,0.3c1.2,0.1,2.4.3,3.6,0.4s2.4,0.3,3.6.5c2.3,0.4,4.7.7,6.9,1.3a100.83,100.83,0,0,1,23.3,8.2,102.33,102.33,0,0,1,16.1,9.9c1,0.8,2.1,1.5,3,2.2l2.5,2.1,2.1,1.8,1.7,1.6Z"/><path class="cls-2" d="M94.5,172.5c2.5-3.1,5.1-6.1,7.7-9s5.3-5.8,8.1-8.7c5.5-5.7,11.2-11.3,17-16.7s11.7-10.7,17.8-15.8,12.3-10.1,18.6-14.9,12.8-9.4,19.4-13.9,13.3-8.8,20.2-12.9,13.8-8,20.9-11.7,14.3-7.2,21.6-10.4,14.8-6.2,22.4-8.9,15.3-5.1,23.1-7.2c3.9-1.1,7.8-2,11.7-2.9s7.9-1.7,11.9-2.4c8-1.4,16-2.6,24.1-3.2l3-.3,3-.2c2-.1,4-0.3,6.1-0.3l6.1-.2c2-.1,4.1,0,6.1,0,4.1,0,8.1.2,12.2,0.4s8.1,0.5,12.2,1,8.1,1,12.1,1.6c2,0.3,4,.7,6,1.1s4,0.7,6,1.2l6,1.3,5.9,1.5,2.9,0.8,2.9,0.9,5.8,1.7,6.9,2.1-2.3,7a162,162,0,0,1-9.6,22.8L428.9,79l-1.4,2.7c-1,1.8-1.9,3.6-2.9,5.3-2.1,3.5-4.1,7-6.3,10.4-4.3,6.9-9,13.4-13.9,19.8l-3.7,4.7c-1.3,1.6-2.5,3.2-3.8,4.7l-4,4.6-2,2.3-2.1,2.2c-2.8,2.9-5.5,5.9-8.4,8.7l-4.3,4.2c-1.4,1.4-3,2.7-4.4,4.1l-4.5,4.1c-1.5,1.3-3.1,2.6-4.6,3.9l-4.7,3.9-4.8,3.7-4.8,3.6-5,3.4-5,3.4c-1.7,1.1-3.4,2.1-5.1,3.2l-5.1,3.2c-1.7,1-3.5,2-5.3,2.9l-5.3,2.9c-0.9.5-1.8,0.9-2.7,1.4l-2.7,1.3c-3.6,1.7-7.2,3.6-11,5.1l-5.6,2.3-2.8,1.2c-0.9.4-1.9,0.7-2.8,1l-5.7,2-2.8,1-1.4.5a10.26,10.26,0,0,1-1.4.4L267,210.5l-11.7,2.7c-1,.2-1.9.5-2.9,0.6l-3,.5-5.9,1-3,.5c-1,.2-2,0.3-3,0.4l-6,.7c-4,.4-7.9,1-11.9,1.1l-6,.3-3,.1c-1,0-2,.1-3,0.1l-11.9-.1c-1,0-2,0-3-.1l-3-.2-5.9-.4-5.9-.4-3-.3-2.9-.4L160.2,215l-11.7-2.2c-1.9-.4-3.9-0.7-5.8-1.2l-5.7-1.5c-3.8-1-7.6-1.9-11.5-2.9l11.7,1.8,5.8,0.9,5.9,0.6,11.7,1.3,11.7,0.6,2.9,0.2a28.1,28.1,0,0,0,2.9.1h14.7c1,0,1.9-.1,2.9-0.1l11.7-.6a28.5,28.5,0,0,0,2.9-.3l2.9-.3,5.8-.6,2.9-.3c0.5-.1,1-0.1,1.4-0.2l1.4-.2,5.7-.9,5.7-.9c1-.1,1.9-0.4,2.9-0.6l2.8-.6,5.7-1.3,2.8-.6c0.9-.2,1.9-0.5,2.8-0.8,3.7-1.1,7.4-2.1,11.1-3.2l10.9-3.7c0.5-.2.9-0.3,1.4-0.5l1.3-.5,2.7-1.1,5.4-2.1c0.9-.4,1.8-0.7,2.7-1.1l2.6-1.2,5.2-2.4c3.5-1.5,6.9-3.4,10.3-5.2l2.6-1.3a20.13,20.13,0,0,0,2.5-1.4l4.8-2.9c1.7-1,3.3-1.9,4.9-3l4.8-3.2,4.8-3.2,4.7-3.4,4.7-3.4L345,158l4.5-3.6,4.3-3.8c1.4-1.3,2.9-2.5,4.3-3.8l4.2-4c1.4-1.3,2.8-2.6,4.2-4l4-4.1c2.7-2.7,5.2-5.6,7.8-8.4l1.9-2.1L382,122l3.7-4.4c1.3-1.4,2.4-3,3.6-4.5l3.5-4.5c4.5-6.2,9-12.4,13-18.9,2.1-3.2,4-6.5,5.9-9.8,0.9-1.7,1.8-3.4,2.7-5l1.4-2.5,1.3-2.6a156.27,156.27,0,0,0,8.7-20.7l4.7,9.1L425,56.5l-2.8-.8-2.8-.7-5.5-1.4-5.6-1.3c-1.9-.5-3.8-0.8-5.6-1.1s-3.8-.7-5.7-1l-5.7-.9a25.35,25.35,0,0,0-2.9-.4l-2.8-.3c-3.8-.5-7.6-0.8-11.4-1.1s-7.7-.5-11.5-0.5c-1.9,0-3.8-.1-5.8-0.1l-5.8.1c-1.9,0-3.8.2-5.8,0.2l-2.9.1-2.9.2a220,220,0,0,0-22.9,2.7c-3.8.6-7.6,1.3-11.4,2s-7.6,1.6-11.3,2.5-7.5,1.9-11.2,2.9l-5.6,1.7c-1.9.5-3.7,1.2-5.5,1.7-7.4,2.4-14.7,5-21.9,7.9s-14.4,6-21.5,9.4-14,6.9-20.9,10.6-13.7,7.6-20.4,11.7-13.3,8.3-19.8,12.7-12.9,8.9-19.3,13.6-12.5,9.5-18.7,14.4-12.2,10-18,15.3C105.9,161.6,100.1,166.9,94.5,172.5Z"/><path class="cls-2" d="M370.9,94.8l0.1,0.4,0.3,1.2a10.62,10.62,0,0,1-.1,4.7,21.82,21.82,0,0,1-3,7,55.8,55.8,0,0,1-6.3,8.2,148.68,148.68,0,0,1-21.3,18.2,339,339,0,0,1-30.8,19.4c-11.6,6.5-24.6,13.1-38.6,19.4a482,482,0,0,1-45,17.6,295.1,295.1,0,0,1-50.7,12.3,141.6,141.6,0,0,1-27.6,1.5,57.48,57.48,0,0,1-14.8-2.6,33.34,33.34,0,0,1-7.9-3.9,21.07,21.07,0,0,1-3.8-3.5,18.64,18.64,0,0,1-2.9-4.9l-0.4-1.1a1,1,0,0,1-.1-0.3l-0.1-.4-0.2-.9a2.2,2.2,0,0,1-.1-0.8l-0.1-.7a6.6,6.6,0,0,1-.1-1.4,21.54,21.54,0,0,1,.5-5.1,25.42,25.42,0,0,1,1.5-4.4c0.6-1.3,1.2-2.5,1.9-3.7a58.87,58.87,0,0,1,9.4-11.7,143.24,143.24,0,0,1,21.7-17.1A298.69,298.69,0,0,1,198.6,118,464.8,464.8,0,0,1,244,101.5c7.3-2.2,14.5-4.3,21.5-6.1s13.8-3.4,20.3-4.8a339.51,339.51,0,0,1,35.9-5.8c10.8-1,20.3-1.2,28-.4a52.55,52.55,0,0,1,10.2,2,22,22,0,0,1,6.9,3.3,10.75,10.75,0,0,1,3.2,3.5,3.7,3.7,0,0,1,.5,1.1Zm0,0-0.2-.4c-0.2-.4-0.3-0.7-0.5-1.1a11.85,11.85,0,0,0-3.2-3.5c-3.3-2.5-9.3-4.5-17-5.1a109.36,109.36,0,0,0-12.8-.2c-4.7.2-9.7,0.7-15,1.4s-11,1.8-16.9,3-12.1,2.8-18.4,4.6-13,3.9-19.7,6.2-13.6,4.9-20.7,7.7a467.72,467.72,0,0,0-43.2,19.8c-7.3,3.8-14.6,7.8-21.8,12.1-3.6,2.2-7.2,4.3-10.8,6.6s-7.1,4.7-10.5,7.1-6.8,5-10,7.7A120.86,120.86,0,0,0,141,169a47.72,47.72,0,0,0-7.1,9,15.05,15.05,0,0,0-1.1,2.2,7,7,0,0,0-.6,1.9,3.81,3.81,0,0,0-.1,1.5v0.5h0v0.1l0.1,0.4,0.1,0.2c0-.1.2,0.5-0.1-0.1a4,4,0,0,0,1.6,1.8,16.18,16.18,0,0,0,1.8,1c0.7,0.3,1.5.6,2.3,0.9a31.55,31.55,0,0,0,5.3,1.3,56,56,0,0,0,5.9.7,102.64,102.64,0,0,0,12.4.2c4.2-.1,8.4-0.4,12.6-0.8a347.27,347.27,0,0,0,49.5-9c16-3.9,31.2-8.6,45.5-13.6,7.1-2.5,14-5.1,20.6-7.8s12.9-5.5,18.9-8.4,11.6-5.7,16.9-8.7,10.2-5.9,14.7-8.9,8.6-5.9,12.2-8.8a110,110,0,0,0,9.5-8.6c5.4-5.6,8.6-11,9.4-15.1a10.62,10.62,0,0,0,.1-4.7L371.1,95Z"/><path class="cls-3" d="M40.2,197.8l-1.9,3.1c-0.6,1-1.4,2.2-2.3,3.7s-1.9,3.1-3.1,5l-3.7,6.2c-1.3,2.3-2.8,4.7-4.1,7.4a150,150,0,0,0-8.4,18.2,69.75,69.75,0,0,0-4.6,22.1,14,14,0,0,0,0,2.9c0,1,.1,2,0.2,3l0.2,1.5,0.1,0.7v0.5a0.45,0.45,0,1,1-.4-0.5,0.43,0.43,0,0,1,.4.4v0.2l0.3,1.7c0.1,0.5.2,0.9,0.3,1.3a6.47,6.47,0,0,0,.4,1.3,5.73,5.73,0,0,1,.4,1.4l0.5,1.4,0.6,1.4a34.48,34.48,0,0,0,2.8,5.4c0.5,0.9,1.1,1.7,1.7,2.6a23.48,23.48,0,0,0,1.9,2.5,50.07,50.07,0,0,0,4.4,4.8,73.42,73.42,0,0,0,10.3,8.3,93.11,93.11,0,0,0,25.3,11.4A110.71,110.71,0,0,0,75.3,319l3.5,0.6c1.2,0.2,2.3.4,3.5,0.5l3.5,0.5,3.7,0.4,14.4,1.5c4.8,0.5,9.6,1,14.2,1.6,9.4,1.1,18.4,2.2,27.1,3.5s16.7,2.8,24.2,4.4a155.51,155.51,0,0,1,20.2,5.8c5.9,2.3,11,4.9,14.4,8.3a14,14,0,0,1,2.1,2.7,10.21,10.21,0,0,1,1.1,2.9,8,8,0,0,1-.5,4.6,13.57,13.57,0,0,1-1.3,2.4l-0.6.7,0.4-.9a11.7,11.7,0,0,0,.7-2.5,7.38,7.38,0,0,0-.4-3.9,8.58,8.58,0,0,0-1.3-2,9.09,9.09,0,0,0-2.1-1.8c-3.3-2.3-8.3-3.9-14.1-5.1a190.78,190.78,0,0,0-19.9-2.9c-7.4-.8-15.4-1.4-24-1.9s-17.6-1-27-1.6l-14.3-.9-7.3-.5-7.4-.6-3.7-.3-3.9-.4c-1.3-.1-2.6-0.3-3.9-0.5l-3.9-.6a132.5,132.5,0,0,1-15.4-3.6,101.46,101.46,0,0,1-29-13.7c-8.8-6.1-16.5-14-21.5-23.4a49.86,49.86,0,0,1-5.2-14.9c-0.1-.7-0.2-1.4-0.3-2l-0.2-1.6v-2.1L1,269.9a21.66,21.66,0,0,1,.1-3.6c0-1.2.1-2.4,0.2-3.6a67.17,67.17,0,0,1,2.9-13.3l1.1-3c0.3-1,.8-1.9,1.1-2.9a23.58,23.58,0,0,1,1.2-2.8L8.9,238a121.74,121.74,0,0,1,11.3-17.8c1.8-2.5,3.7-4.7,5.4-6.8s3.3-3.9,4.8-5.6c3-3.3,5.4-5.8,7.1-7.5Z"/><circle class="cls-4" cx="65.9" cy="232.4" r="19.5"/><circle class="cls-5" cx="72.4" cy="230.3" r="12.7"/></g></svg>